<?xml version="1.0" encoding="UTF-8" standalone="no"?>
<!-- Created with Inkscape (http://www.inkscape.org/) -->

<svg xmlns:ns0="&amp;#38;ns_sfw;" xmlns:dc="http://purl.org/dc/elements/1.1/" xmlns:cc="http://creativecommons.org/ns#" xmlns:rdf="http://www.w3.org/1999/02/22-rdf-syntax-ns#" xmlns:svg="http://www.w3.org/2000/svg" xmlns="http://www.w3.org/2000/svg" version="1.1" width="354.379" height="124.839" viewBox="0 0 354.37899 124.839" id="Calque_1" xml:space="preserve">
  <defs id="defs3588" />
  <metadata id="metadata3502">
    <ns0:sfw>
      <ns0:slices />
      <ns0:sliceSourceBounds bottomLeftOrigin="true" height="124.838" width="354.378" y="28.181" x="28.18" />
    </ns0:sfw>
    <rdf:RDF>
      <cc:Work rdf:about="">
        <dc:format>image/svg+xml</dc:format>
        <dc:type rdf:resource="http://purl.org/dc/dcmitype/StillImage" />
        <dc:title></dc:title>
      </cc:Work>
    </rdf:RDF>
  </metadata>
  <g transform="translate(-28.180011,-28.299)" id="g3504">
    <path d="m 201.068,89.832 c -0.769,0 -1.5,-0.446 -1.742,-1.419 -0.486,-1.987 -1.055,-3.932 -1.623,-5.839 h -11.594 c -0.527,1.907 -1.096,3.852 -1.582,5.839 -0.244,0.973 -0.973,1.419 -1.703,1.419 -1.013,0 -2.067,-0.851 -1.743,-2.23 2.311,-9.324 5.19,-17.758 8.555,-26.069 0.688,-1.662 1.5,-1.986 2.311,-1.986 0.811,0 1.662,0.324 2.352,1.986 3.404,8.311 6.242,16.745 8.554,26.069 0.364,1.379 -0.73,2.23 -1.785,2.23 m -9.162,-24.407 c -1.744,4.5 -3.365,9.041 -4.865,13.825 h 9.73 c -1.459,-4.784 -3.082,-9.325 -4.865,-13.825" id="path3506" />
    <path d="m 214.045,89.791 c -7.541,0 -10.297,-5.108 -10.297,-12.73 v -4.785 c 0,-7.297 2.877,-12.73 10.541,-12.73 2.473,0 5.148,0.649 6.852,2.514 0.486,0.405 0.689,0.892 0.689,1.338 0,0.811 -0.568,1.622 -1.703,1.622 -0.609,0.04 -0.975,-0.325 -1.623,-0.811 -1.094,-0.892 -2.514,-1.338 -4.215,-1.338 -4.744,0 -6.893,3.203 -6.893,9.486 v 4.663 c 0,6.609 2.027,9.487 6.648,9.487 4.258,0 6.041,-2.595 6.041,-6.73 v -2.149 h -4.865 c -0.932,0 -1.703,-0.77 -1.703,-1.702 0,-0.933 0.771,-1.703 1.703,-1.703 h 6.648 c 1.014,0 1.744,0.77 1.744,1.824 v 3.649 c 0.001,5.716 -2.878,10.095 -9.567,10.095" id="path3508" />
    <path d="m 228.725,89.832 c -1.014,0 -1.824,-0.812 -1.824,-1.825 V 61.371 c 0,-0.973 0.811,-1.825 1.824,-1.825 1.013,0 1.824,0.852 1.824,1.825 v 26.636 c 0,1.013 -0.811,1.825 -1.824,1.825" id="path3510" />
    <path d="m 252.117,89.832 c -0.648,0 -1.215,-0.284 -1.58,-1.054 -1.947,-3.852 -4.177,-7.704 -6.609,-11.514 h -5.473 v 10.743 c 0,1.014 -0.811,1.825 -1.824,1.825 -1.013,0 -1.824,-0.811 -1.824,-1.825 V 61.736 c 0,-0.973 0.811,-1.825 1.824,-1.825 h 7.703 c 6.568,0 9.406,3.325 9.406,7.744 v 1.744 c 0,3.243 -1.865,6.284 -5.921,7.256 2.19,3.528 4.257,7.014 6,10.583 0.732,1.418 -0.526,2.594 -1.702,2.594 M 250.09,67.655 c 0,-2.271 -1.539,-4.338 -5.797,-4.338 h -5.838 v 10.582 h 5.797 c 4.055,0 5.838,-2.19 5.838,-4.5 v -1.744 z" id="path3512" />
    <path d="m 190.814,123.545 h -8.088 c -0.914,0 -1.646,-0.731 -1.646,-1.646 V 98.517 c 0,-0.878 0.732,-1.646 1.646,-1.646 h 7.281 c 5.6,0 7.832,3.037 7.832,6.587 v 1.061 c 0,2.671 -1.281,4.391 -3.514,5.306 2.891,0.878 4.612,3.037 4.612,5.892 v 0.987 c 10e-4,3.95 -2.085,6.841 -8.123,6.841 m 3.768,-19.723 c 0,-2.195 -1.353,-3.842 -4.609,-3.842 h -5.6 v 8.636 h 3.989 c 3.697,0 6.22,-0.878 6.22,-3.77 v -1.024 z m 1.098,11.709 c 0,-2.488 -2.049,-3.951 -5.451,-3.951 h -5.856 v 8.892 h 6.368 c 3.878,0 4.939,-1.72 4.939,-4.062 v -0.879 z" id="path3514" style="fill:#0076bd" />
    <path d="m 203.617,123.874 c -0.914,0 -1.646,-0.731 -1.646,-1.646 v -24.04 c 0,-0.878 0.732,-1.646 1.646,-1.646 0.916,0 1.646,0.769 1.646,1.646 v 24.041 c 0,0.914 -0.73,1.645 -1.646,1.645" id="path3516" style="fill:#0076bd" />
    <path d="m 217.668,123.874 c -6.881,0 -9.148,-4.903 -9.148,-9.879 v -7.574 c 0,-4.977 2.268,-9.88 9.148,-9.88 6.842,0 9.109,4.903 9.109,9.88 v 7.574 c 0,4.976 -2.267,9.879 -9.109,9.879 m 5.853,-17.453 c 0,-3.806 -1.428,-6.843 -5.854,-6.843 -4.465,0 -5.855,3 -5.855,6.843 v 7.574 c 0,3.842 1.428,6.879 5.855,6.879 4.391,0 5.854,-3.037 5.854,-6.879 v -7.574 z" id="path3518" style="fill:#0076bd" />
    <path d="m 238.85,123.545 h -7.135 c -0.914,0 -1.646,-0.731 -1.646,-1.646 V 98.517 c 0,-0.878 0.732,-1.646 1.646,-1.646 h 7.135 c 8.16,0 9.404,5.928 9.404,9.953 v 6.842 c 0,3.951 -1.244,9.879 -9.404,9.879 m 6.111,-16.686 c 0,-3.439 -0.988,-6.842 -6.293,-6.842 h -5.307 v 20.454 h 5.307 c 5.305,0 6.293,-3.439 6.293,-6.843 v -6.769 z" id="path3520" style="fill:#0076bd" />
    <path d="m 253.191,123.874 c -0.916,0 -1.646,-0.731 -1.646,-1.646 v -24.04 c 0,-0.878 0.73,-1.646 1.646,-1.646 0.914,0 1.646,0.769 1.646,1.646 v 24.041 c 0.001,0.914 -0.732,1.645 -1.646,1.645" id="path3522" style="fill:#0076bd" />
    <path d="m 269.361,122.228 c -0.439,1.171 -1.098,1.646 -1.939,1.646 -0.951,0 -1.572,-0.438 -2.012,-1.683 -3,-8.307 -5.598,-16.137 -7.758,-23.528 -0.365,-1.28 0.658,-2.122 1.646,-2.122 0.661,0 1.282,0.402 1.5,1.208 1.905,6.439 4.136,13.465 6.735,20.673 2.598,-7.208 4.902,-14.27 6.805,-20.746 0.221,-0.769 0.805,-1.135 1.391,-1.135 0.951,0 1.902,0.805 1.537,1.976 -2.159,7.428 -4.83,15.332 -7.905,23.711" id="path3524" style="fill:#0076bd" />
    <path d="m 293.691,123.545 h -12.732 c -0.879,0 -1.574,-0.695 -1.574,-1.573 V 98.443 c 0,-0.841 0.695,-1.573 1.574,-1.573 h 12.184 c 0.879,0 1.574,0.732 1.574,1.573 0,0.879 -0.695,1.574 -1.574,1.574 h -10.465 v 8.673 h 9.551 c 0.842,0 1.5,0.694 1.5,1.535 0,0.842 -0.658,1.537 -1.5,1.537 h -9.551 v 8.637 h 11.014 c 0.879,0 1.574,0.694 1.574,1.572 0,0.878 -0.733,1.574 -1.575,1.574" id="path3526" style="fill:#0076bd" />
    <path d="m 313.119,123.874 c -0.584,0 -1.099,-0.256 -1.426,-0.952 -1.758,-3.475 -3.77,-6.951 -5.966,-10.391 h -4.938 v 9.696 c 0,0.915 -0.732,1.646 -1.646,1.646 -0.916,0 -1.646,-0.731 -1.646,-1.646 v -23.71 c 0,-0.878 0.73,-1.646 1.646,-1.646 h 6.951 c 5.927,0 8.49,3.001 8.49,6.989 v 1.573 c 0,2.927 -1.684,5.672 -5.344,6.55 1.977,3.184 3.844,6.33 5.416,9.55 0.658,1.28 -0.474,2.341 -1.537,2.341 m -1.828,-20.015 c 0,-2.049 -1.391,-3.915 -5.232,-3.915 h -5.27 v 9.55 h 5.231 c 3.659,0 5.271,-1.976 5.271,-4.062 v -1.573 z" id="path3528" style="fill:#0076bd" />
    <path d="m 325.082,123.874 c -2.744,0 -4.939,-0.329 -7.025,-1.171 -0.732,-0.293 -1.062,-0.878 -1.062,-1.5 0,-0.805 0.586,-1.573 1.465,-1.573 0.658,0 1.281,0.549 3.109,0.915 0.842,0.184 1.902,0.329 3.258,0.329 4.463,0 6.477,-2.013 6.477,-4.903 0,-2.232 -1.135,-3.22 -3.551,-3.951 -1.975,-0.586 -5.379,-0.915 -7.391,-1.903 -1.939,-0.951 -3.293,-2.597 -3.293,-5.672 0,-5.013 3.695,-7.903 8.6,-7.903 2.268,0 4.244,0.256 6.072,1.024 0.77,0.293 1.098,0.878 1.098,1.464 0,0.805 -0.584,1.574 -1.535,1.574 -0.586,0 -1.135,-0.44 -2.672,-0.77 -0.695,-0.146 -1.609,-0.256 -2.781,-0.256 -3.439,0 -5.488,1.756 -5.488,4.537 0,2.342 1.354,3.22 3.623,3.842 2.451,0.695 5.963,0.915 7.977,2.269 1.719,1.135 2.635,2.854 2.635,5.452 -0.002,5.269 -3.772,8.196 -9.516,8.196" id="path3530" style="fill:#0076bd" />
    <path d="m 339.496,123.874 c -0.916,0 -1.646,-0.731 -1.646,-1.646 v -24.04 c 0,-0.878 0.73,-1.646 1.646,-1.646 0.914,0 1.646,0.769 1.646,1.646 v 24.041 c 10e-4,0.914 -0.732,1.645 -1.646,1.645" id="path3532" style="fill:#0076bd" />
    <path d="m 362.436,100.054 h -6.916 v 22.174 c 0,0.915 -0.73,1.646 -1.647,1.646 -0.914,0 -1.646,-0.731 -1.646,-1.646 v -22.174 h -6.916 c -0.877,0 -1.572,-0.695 -1.572,-1.573 0,-0.878 0.695,-1.61 1.572,-1.61 h 17.125 c 0.879,0 1.609,0.732 1.609,1.61 0,0.878 -0.731,1.573 -1.609,1.573" id="path3534" style="fill:#0076bd" />
    <path d="m 380.984,123.545 h -12.732 c -0.879,0 -1.574,-0.695 -1.574,-1.573 V 98.443 c 0,-0.841 0.695,-1.573 1.574,-1.573 h 12.184 c 0.88,0 1.574,0.732 1.574,1.573 0,0.88 -0.694,1.574 -1.574,1.574 h -10.465 v 8.672 h 9.552 c 0.841,0 1.5,0.695 1.5,1.536 0,0.842 -0.659,1.537 -1.5,1.537 h -9.552 v 8.636 h 11.014 c 0.879,0 1.574,0.695 1.574,1.573 0,0.878 -0.733,1.574 -1.575,1.574 M 374.252,93.76 c -0.402,0.659 -1.061,0.879 -1.684,0.549 -0.584,-0.292 -0.914,-0.987 -0.549,-1.646 l 2.746,-5.048 c 0.328,-0.623 1.098,-1.062 1.938,-0.623 0.77,0.439 0.879,1.281 0.549,1.867 l -3,4.901 z" id="path3536" style="fill:#0076bd" />
    <path d="m 272.918,89.663 c -1.207,0 -2.773,-0.391 -4.111,-1.403 v 6.133 c 0,0.588 -0.457,1.044 -1.043,1.044 -0.588,0 -1.045,-0.456 -1.045,-1.044 V 76.908 c 0,-1.404 -0.229,-1.795 -0.945,-2.121 -0.359,-0.163 -0.521,-0.456 -0.521,-0.784 0,-0.652 0.488,-0.978 1.043,-0.978 0.424,0 1.045,0.228 1.533,0.685 0.262,0.229 0.457,0.522 0.62,0.848 1.337,-1.011 2.903,-1.533 4.372,-1.533 4.24,0 5.904,2.349 5.904,6.427 v 3.099 c 0,4.142 -1.568,7.112 -5.807,7.112 m 3.719,-10.309 c 0,-2.936 -1.043,-4.437 -4.045,-4.437 -1.144,0 -2.512,0.49 -3.785,1.566 v 9.559 c 1.207,1.337 2.807,1.729 3.883,1.729 2.773,0 3.947,-1.794 3.947,-4.991 v -3.426 z" id="path3538" />
    <path d="m 286.754,89.662 c -4.535,0 -6.33,-3.001 -6.33,-6.654 V 79.68 c 0,-3.653 1.795,-6.655 6.33,-6.655 4.533,0 6.328,3.002 6.328,6.655 v 3.328 c 0,3.653 -1.795,6.654 -6.328,6.654 m 4.24,-9.982 c 0,-2.806 -1.207,-4.665 -4.24,-4.665 -3.068,0 -4.275,1.859 -4.275,4.665 v 3.328 c 0,2.838 1.207,4.697 4.275,4.697 3.033,0 4.24,-1.859 4.24,-4.697 V 79.68 z" id="path3540" />
    <path d="m 308.092,89.662 c -0.424,0 -1.109,-0.261 -1.598,-0.685 -0.393,-0.391 -0.621,-0.848 -0.752,-1.337 -1.141,1.272 -2.805,2.022 -5.154,2.022 -4.078,0 -5.285,-2.577 -5.285,-5.839 v -9.755 c 0,-0.554 0.49,-1.044 1.045,-1.044 0.588,0 1.043,0.49 1.043,1.044 v 9.592 c 0,2.48 0.686,3.98 3.492,3.98 2.348,0 3.816,-0.979 4.566,-2.578 V 74.068 c 0,-0.554 0.457,-1.044 1.045,-1.044 0.586,0 1.043,0.49 1.043,1.044 V 85.78 c 0,1.436 0.326,1.827 1.045,2.153 0.357,0.131 0.521,0.424 0.521,0.784 10e-4,0.619 -0.457,0.945 -1.011,0.945" id="path3542" />
    <path d="m 319.188,75.275 c -0.359,-0.098 -0.85,-0.229 -1.762,-0.229 -1.371,0 -3.459,0.425 -4.014,3.492 v 10.08 c 0,0.588 -0.488,1.044 -1.043,1.044 -0.588,0 -1.045,-0.456 -1.045,-1.044 V 77.103 c 0,-1.402 -0.359,-1.794 -1.076,-2.12 -0.359,-0.163 -0.521,-0.457 -0.521,-0.783 0,-0.587 0.391,-0.979 1.043,-0.979 0.066,0 0.195,0.033 0.295,0.033 1.271,0.326 1.859,1.174 2.119,2.087 1.338,-2.022 3.264,-2.316 4.502,-2.316 0.947,0 1.664,0.131 2.219,0.326 0.555,0.229 0.719,0.849 0.49,1.338 -0.198,0.423 -0.622,0.749 -1.207,0.586" id="path3544" />
    <path d="m 331.031,89.662 c -0.455,0 -1.141,-0.261 -1.598,-0.685 -0.75,-0.685 -1.045,-1.664 -1.045,-2.642 V 66.891 c 0,-0.587 0.457,-1.043 1.045,-1.043 0.555,0 1.012,0.456 1.012,1.043 V 85.78 c 0,1.436 0.359,1.827 1.076,2.153 0.359,0.131 0.521,0.424 0.521,0.784 0.001,0.619 -0.456,0.945 -1.011,0.945" id="path3546" />
    <path d="m 345.027,89.662 c -0.488,0 -1.141,-0.261 -1.564,-0.685 -0.326,-0.294 -0.523,-0.717 -0.652,-1.141 -1.176,1.5 -3.133,1.826 -4.602,1.826 -4.076,0 -5.611,-2.152 -5.611,-4.665 v -0.261 c 0,-2.545 1.633,-4.6 5.809,-4.6 h 4.078 v -0.88 c 0,-2.969 -0.654,-4.405 -3.785,-4.405 -1.631,0 -2.676,0.392 -3.523,0.881 -1.109,0.62 -2.055,-0.913 -0.979,-1.598 1.207,-0.75 2.74,-1.11 4.566,-1.11 4.633,0 5.809,2.349 5.809,6.362 v 6.394 c 0,1.403 0.26,1.827 0.945,2.153 0.359,0.163 0.521,0.424 0.521,0.784 0,0.619 -0.457,0.945 -1.012,0.945 m -2.543,-7.797 h -3.949 c -3.131,0 -3.85,1.436 -3.85,2.871 v 0.294 c 0,1.468 0.752,2.87 3.785,2.87 2.545,0 4.014,-1.271 4.014,-3.882 v -2.153 z" id="path3548" />
    <rect width="123.171" height="123.17" x="29.013" y="29.132999" id="rect3550" style="fill:#ffffff" />
    <path d="M 28.18,153.138 V 28.299 h 124.842 v 124.004 0.834 H 28.18 z m 124.004,-0.834 v -0.834 0.834 z M 29.848,151.47 H 151.352 V 29.964 H 29.848 V 151.47 z" id="path3552" />
    <polygon points="148.762,148.845 148.762,32.903 32.403,32.903 32.403,148.949 " id="polygon3554" style="fill:#0076bd" />
    <path d="M 93.311,44.075 C 91.922,40.74 89.768,34.413 78.508,34.484 67.245,34.555 63.696,45.398 63.562,46.58 c -0.14,1.178 0.554,7.643 -1.668,9.729 -2.225,2.083 -9.317,6.259 -12.929,11.329 -3.615,5.078 -7.299,15.92 -8.76,18.77 -1.459,2.849 -5.352,5.492 -7.816,5.735 v 3.717 c 0,0 14.699,3.477 17.202,4.03 2.5,0.558 7.089,1.179 7.992,2.225 0.902,1.047 2.99,8.761 2.99,8.761 h 7.573 l 2.508,5.56 h 11.883 l 2.154,-3.96 -12.442,1.04 -1.112,-2.712 1.88,-0.066 1.599,-3.684 -4.313,0.416 c 0,0 -1.254,-4.938 4.24,-10.915 5.493,-5.978 13.414,-14.596 14.596,-27.037 0,0 1.463,0.209 2.298,-0.489 0,0 0.066,9.385 4.379,17.031 4.308,7.649 10.423,10.776 14.941,12.095 3.686,0.579 1.253,4.585 0.557,6.256 -0.693,1.667 -0.974,2.778 -2.5,2.643 -1.532,-0.145 -8.827,-0.837 -8.827,-0.837 l 2.084,3.406 h 8.55 c 0,0 1.666,-1.668 3.402,-5.56 1.739,-3.893 2.714,-3.96 4.73,-0.486 0.901,3.754 0.206,8.132 -0.28,9.172 -0.483,1.047 -2.085,0.631 -2.085,0.631 l -9.315,-0.904 2.434,3.96 h 9.804 c 0,0 0.553,0.695 1.805,-5.003 1.252,-5.702 2.78,-6.259 6.603,-6.606 3.821,-0.348 9.871,0.837 13.065,0.837 3.2,0 6.535,-0.766 7.997,-1.391 v -3.406 c 0,0 -4.588,0.97 -9.733,-13.831 -5.141,-14.806 -7.573,-17.452 -19.113,-29.129 0,0 -1.321,-0.763 -1.321,-2.917 0,-2.157 -0.488,-13.692 -10.912,-16.4 -10.429,-2.715 -14.391,5.485 -14.391,5.485" id="path3556" style="fill:#ffffff" />
    <path d="m 93.522,48.039 c -0.789,0 -3.524,-12.604 -13.441,-11.631 -9.916,0.975 -14.091,5.28 -14.781,12.834 0.137,4.495 -0.209,6.582 -1.465,7.901 -1.249,1.324 -10.284,7.231 -13.064,11.262 -2.778,4.031 -7.646,16.545 -7.646,16.545 0,0 -2.157,6.812 -8.689,8.615 0,0 -0.833,0.702 1.323,1.047 2.154,0.344 21.617,5.698 27.107,4.935 5.489,-0.763 5.56,-1.181 8.131,-5.492 2.571,-4.31 8.48,-4.797 10.568,-18.631 2.084,-13.83 2.223,-12.996 3.541,-14.036 1.324,-1.047 2.717,5.766 3.48,6.252 0.762,0.489 2.222,1.046 9.524,-3.612 1.041,-0.763 1.181,-1.182 1.456,-1.044 0.278,0.142 2.435,4.656 8.968,4.379 6.536,-0.277 7.788,-0.622 10.361,3.058 2.564,3.687 2.707,13.416 2.844,18.767 0.143,5.354 0.143,9.455 1.811,11.883 1.664,2.437 9.869,0.212 13.694,2.157 0,0 8.686,0.557 8.548,-0.831 -0.138,-1.391 -3.407,-0.834 -7.716,-11.818 -2.989,-10.703 -6.326,-17.656 -15.223,-26.831 0,0 -5.074,-5.003 -5.629,-6.185 -0.557,-1.182 -0.902,-3.683 -0.973,-5.351 -0.07,-1.671 -1.738,-11.609 -12.098,-12.234 -10.356,0.762 -9.383,8.061 -10.631,8.061" id="path3558" />
    <path d="m 92.316,50.678 c 0.142,-1.48 -0.834,-8.015 -5.652,-8.341 -2.319,0.372 -2.596,0.929 -5.379,0.837 -2.777,-0.093 -4.403,-1.487 -5.56,-1.392 0,0 -0.325,0.096 1.065,2.226 1.39,2.128 0.88,5.652 0.88,5.652 0,0 -0.182,3.987 2.732,6.163 0.931,1.295 3.063,-0.326 3.063,-0.326 0,0 1.572,0.514 3.895,-0.831 2.313,-1.348 1.433,-1.575 2.733,-2.412 1.295,-0.831 2.223,-1.576 2.223,-1.576" id="path3560" style="fill:#ffffff" />
    <path d="m 89.209,46.278 c 0.183,0.88 -0.232,3.197 -1.622,3.104 -1.39,-0.088 -0.227,-0.972 -1.435,-1.716 -1.203,-0.739 -2.272,-1.388 -5.145,-1.434 0,0 -1.53,-0.37 0.325,-0.696 1.856,-0.322 3.429,-0.51 4.957,0.37 1.534,0.88 0.972,1.067 2.039,0.511 1.065,-0.555 0.881,-0.139 0.881,-0.139" id="path3562" />
    <path d="m 95.79,57.722 c -1.437,-1.434 -1.388,-4.403 -1.434,-5.33 -0.047,-0.926 -1.483,-0.319 -1.898,0.515 -0.42,0.83 -4.129,4.772 -4.22,9.313 -0.093,4.539 1.343,4.585 1.575,4.585 0.235,0 1.576,0.188 6.35,-2.874 4.772,-3.055 4.683,-4.446 3.475,-4.584 -1.202,-0.139 -2.784,-0.558 -3.848,-1.625" id="path3564" style="fill:#ffffff" />
    <path d="m 93.197,54.479 c 0.165,1.194 0.275,5.652 4.54,5.701 0,0 1.248,0.234 -0.557,1.207 -1.808,0.972 -4.63,1.806 -5.003,-0.788 -0.369,-2.598 0,-5.932 1.02,-6.12" id="path3566" />
    <path d="m 93.522,63.519 c -1.165,-0.219 -2.874,0.369 -2.734,-5.333 0,0 -1.579,1.533 -1.298,4.034 0.278,2.499 1.158,3.615 4.032,1.299" id="path3568" />
    <path d="m 103.853,48.918 c -2.366,0 -8.523,1.714 -8.245,5.748 0.274,4.03 5.002,3.846 5.002,3.846 0,0 0.975,0.046 1.297,1.064 0.696,0.185 4.174,1.622 8.34,-2.778 2.503,-4.126 2.876,-8.296 2.322,-8.434 -0.559,-0.141 -1.859,0.834 -4.034,0.877 -2.178,0.052 -4.682,-0.323 -4.682,-0.323" id="path3570" style="fill:#ffffff" />
    <path d="m 101.353,51.051 c -0.326,0.695 -0.788,2.548 0.37,3.381 1.155,0.834 2.824,-0.833 2.824,-0.833 0,0 1.903,-1.253 3.062,-1.481 0,0 -0.142,-0.882 -3.291,0.416 -3.151,1.298 -2.965,-1.483 -2.965,-1.483" id="path3572" />
    <path d="m 62.45,108.337 c 0,0 -1.182,-3.683 -1.076,-4.621 0,0 1.836,-0.521 3.474,0.834 1.634,1.354 2.431,2.99 2.363,3.335 l -4.761,0.452 z" id="path3574" style="fill:#0076bd" />
    <polygon points="68.707,134.3 59.807,134.3 59.807,121.786 49.382,121.786 49.382,141.879 68.707,141.879 " id="polygon3576" style="fill:#ffffff" />
    <path d="m 84.068,137.497 v 4.311 H 73.85 v -20.16 h 18.278 c 0,0 7.859,-0.138 7.859,7.927 0,8.065 -7.373,7.855 -7.373,7.855 l -8.546,0.067 z" id="path3578" style="fill:#ffffff" />
    <path d="m 88.377,131.799 h -4.31 v -3.896 h 4.099 c 0,0 1.881,0.07 1.881,1.81 0,1.735 -1.67,2.086 -1.67,2.086" id="path3580" style="fill:#0076bd" />
    <path d="m 118.265,120.192 c -10.771,0 -14.112,4.93 -14.112,11.397 0,6.464 2.366,11.68 13.973,11.68 11.61,0 13.414,-5.422 13.414,-11.403 0,-5.978 -3.057,-11.674 -13.275,-11.674" id="path3582" style="fill:#ffffff" />
    <path d="m 114.79,131.728 c 0,3.616 2.157,4.243 3.129,4.243 0.976,0 3.268,-0.418 3.268,-4.036 0,-3.612 -2.504,-4.17 -3.268,-4.17 -0.764,0 -3.129,0.557 -3.129,3.963" id="path3584" style="fill:#0076bd" />
  </g>
</svg>